<svg xmlns="http://www.w3.org/2000/svg" viewBox="0 0 15 10" fill="none" icon="Earn" color="inherit">
    <path fill-rule="evenodd" clip-rule="evenodd"
        d="M13.7861 5.08812C14.1848 5.08431 14.5112 4.75795 14.515 4.35918L14.5428 1.47106C14.5447 1.27956 14.4704 1.09663 14.3363 0.962516C14.2022 0.828404 14.0192 0.754091 13.8277 0.755929L10.9395 0.78364C10.5408 0.787466 10.2144 1.11383 10.2106 1.5126C10.2067 1.91137 10.5269 2.23153 10.9257 2.22771L12.053 2.21689L7.24168 6.96113L4.87829 4.89852C4.59462 4.65096 4.16335 4.66944 3.89198 4.94079L0.246912 8.5856C-0.0377752 8.87026 -0.0421784 9.32743 0.237077 9.60671C0.516332 9.88598 0.973498 9.88161 1.25818 9.59695L4.42102 6.43434L6.78082 8.49382C7.06301 8.74009 7.49162 8.72325 7.76345 8.4552L13.0822 3.2106L13.071 4.373C13.0671 4.77176 13.3873 5.09194 13.7861 5.08812Z"
        fill="currentColor"></path>
</svg>